<svg width="22" height="20" viewBox="0 0 22 20" fill="none" xmlns="http://www.w3.org/2000/svg">
<path d="M1.5 13.499L3.41016 11.5898C4.7558 10.2442 5.42839 9.57127 6.15723 9.50977C6.52416 9.4788 6.89249 9.54982 7.22168 9.71484C7.87545 10.0427 8.25042 10.917 9 12.666L9.05371 12.791C9.37946 13.5511 9.54245 13.9313 9.81055 14.0977C10.0191 14.2267 10.2682 14.2747 10.5098 14.2324C10.8207 14.1778 11.1139 13.8852 11.6992 13.2998L11.8125 13.1865C12.5336 12.4654 12.8948 12.1051 13.3037 11.9531C13.753 11.7863 14.247 11.7863 14.6963 11.9531C15.1052 12.1051 15.4664 12.4654 16.1875 13.1865L16.9395 13.9385C17.6186 14.6176 18.5396 14.999 19.5 14.999V2.18945C19.9994 3.39101 20 5.16091 20 7.99902V11.999C20 15.7703 19.9997 17.6566 18.8281 18.8281C17.6565 19.9994 15.7709 19.999 12 19.999H8C4.22913 19.999 2.34347 19.9994 1.17188 18.8281C0.000302125 17.6566 0 15.7703 0 11.999V7.99902C8.15025e-10 4.22799 0.000333026 2.34244 1.17188 1.1709C1.27545 1.06734 1.38445 0.972778 1.5 0.886719V13.499Z" fill="#222222"/>
<path d="M8 1H12C13.9139 1 15.2487 1.00229 16.2559 1.1377C17.2342 1.26923 17.7521 1.50989 18.1211 1.87891C18.4901 2.24792 18.7308 2.7658 18.8623 3.74414C18.9977 4.75127 19 6.08611 19 8V12C19 13.9139 18.9977 15.2487 18.8623 16.2559C18.7308 17.2342 18.4901 17.7521 18.1211 18.1211C17.7521 18.4901 17.2342 18.7308 16.2559 18.8623C15.2487 18.9977 13.9139 19 12 19H8C6.08611 19 4.75127 18.9977 3.74414 18.8623C2.7658 18.7308 2.24792 18.4901 1.87891 18.1211C1.50989 17.7521 1.26923 17.2342 1.1377 16.2559C1.00229 15.2487 1 13.9139 1 12V8C1 6.08611 1.00229 4.75127 1.1377 3.74414C1.26923 2.7658 1.50989 2.24792 1.87891 1.87891C2.24792 1.50989 2.7658 1.26923 3.74414 1.1377C4.75127 1.00229 6.08611 1 8 1Z" stroke="#222222" stroke-width="2"/>
<circle cx="13" cy="7" r="2" fill="#222222"/>
</svg>
