<svg width="16" height="17" viewBox="0 0 16 17" fill="none" xmlns="http://www.w3.org/2000/svg">
<path d="M11.7639 10H5.69425C4.71658 10 3.8822 9.29317 3.72147 8.3288L3.2911 5.7466C3.13872 4.8323 3.84378 4 4.77069 4H14.382C15.1253 4 15.6088 4.78231 15.2764 5.44721L13.5528 8.89443C13.214 9.572 12.5215 10 11.7639 10Z" fill="#222222"/>
<path d="M14 16C14 16.5523 13.5523 17 13 17C12.4477 17 12 16.5523 12 16C12 15.4477 12.4477 15 13 15C13.5523 15 14 15.4477 14 16Z" fill="#222222"/>
<path d="M6 16C6 16.5523 5.55228 17 5 17C4.44772 17 4 16.5523 4 16C4 15.4477 4.44772 15 5 15C5.55228 15 6 15.4477 6 16Z" fill="#222222"/>
</svg>
